<?xml version="1.0" standalone="no"?>
<!DOCTYPE svg PUBLIC "-//W3C//DTD SVG 20010904//EN"
 "http://www.w3.org/TR/2001/REC-SVG-20010904/DTD/svg10.dtd">
<svg version="1.0" xmlns="http://www.w3.org/2000/svg"
 width="256.000000pt" height="256.000000pt" viewBox="0 0 256.000000 256.000000"
 preserveAspectRatio="xMidYMid meet">
<metadata>
Created by potrace 1.13, written by Peter Selinger 2001-2015
</metadata>
<g transform="translate(0.000000,256.000000) scale(0.100000,-0.100000)"
fill="#000000" stroke="none">
<path d="M890 1275 l0 -705 220 0 220 0 0 471 0 470 35 15 c20 8 75 24 123 35
71 17 105 20 182 15 52 -3 110 -9 128 -12 l32 -6 0 211 0 211 -82 0 c-128 -1
-241 -48 -368 -155 l-45 -38 -5 94 -5 94 -217 3 -218 2 0 -705z"/>
</g>
</svg>
